<svg id="Layer_1" data-name="Layer 1" xmlns="http://www.w3.org/2000/svg" xmlns:xlink="http://www.w3.org/1999/xlink" viewBox="0 0 253.47 43.29"><defs><style>.cls-1{fill:#404040;}.cls-2{fill:#1a1a1a;}.cls-3{fill:url(#linear-gradient);}.cls-4{fill:url(#linear-gradient-2);}.cls-5{fill:url(#linear-gradient-3);}.cls-6{fill:url(#linear-gradient-4);}.cls-7{fill:url(#linear-gradient-5);}.cls-8{fill:url(#linear-gradient-6);}.cls-9{fill:url(#linear-gradient-7);}.cls-10{fill:url(#linear-gradient-8);}.cls-11{fill:url(#linear-gradient-9);}.cls-12{fill:url(#linear-gradient-10);}.cls-13{fill:url(#linear-gradient-11);}.cls-14{fill:url(#linear-gradient-12);}.cls-15{fill:url(#linear-gradient-13);}.cls-16{fill:url(#linear-gradient-14);}.cls-17{fill:url(#linear-gradient-15);}.cls-18{fill:url(#linear-gradient-16);}.cls-19{fill:url(#linear-gradient-17);}.cls-20{fill:url(#linear-gradient-18);}.cls-21{fill:url(#linear-gradient-19);}.cls-22{fill:url(#linear-gradient-20);}.cls-23{fill:url(#linear-gradient-21);}.cls-24{fill:url(#linear-gradient-22);}.cls-25{fill:url(#linear-gradient-23);}.cls-26{fill:url(#linear-gradient-24);}.cls-27{fill:#2ba14b;}.cls-28{fill:url(#linear-gradient-25);}.cls-29{fill:#08692d;}.cls-30{fill:url(#linear-gradient-26);}.cls-31{fill:url(#linear-gradient-27);}.cls-32{fill:url(#linear-gradient-28);}.cls-33{fill:url(#linear-gradient-29);}.cls-34{fill:url(#linear-gradient-30);}.cls-35{fill:url(#linear-gradient-31);}.cls-36{fill:url(#linear-gradient-32);}.cls-37{fill:url(#linear-gradient-33);}.cls-38{fill:url(#linear-gradient-34);}.cls-39{fill:url(#linear-gradient-35);}.cls-40{fill:url(#linear-gradient-36);}.cls-41{fill:url(#linear-gradient-37);}.cls-42{fill:url(#linear-gradient-38);}.cls-43{fill:#2d2d2d;}.cls-44{fill:url(#linear-gradient-39);}.cls-45{fill:url(#linear-gradient-40);}</style><linearGradient id="linear-gradient" x2="1" gradientTransform="matrix(1.04, 0, 0, -1.7, 22.6, 189.86)" gradientUnits="userSpaceOnUse"><stop offset="0" stop-color="#404040"/><stop offset="0.93" stop-color="#404040"/><stop offset="1" stop-color="#404040"/></linearGradient><linearGradient id="linear-gradient-2" x2="1" gradientTransform="matrix(3.66, -38.56, -23.65, -5.97, 28.54, 243.92)" gradientUnits="userSpaceOnUse"><stop offset="0" stop-color="#404040"/><stop offset="0.01" stop-color="#404040"/><stop offset="0.26" stop-color="#1a1a1a"/><stop offset="0.82" stop-color="#1a1a1a"/><stop offset="0.99" stop-color="#404040"/><stop offset="1" stop-color="#404040"/></linearGradient><linearGradient id="linear-gradient-3" x2="1" gradientTransform="matrix(5.71, -31.88, -19.55, -9.31, 26.63, 239.01)" gradientUnits="userSpaceOnUse"><stop offset="0" stop-color="#1a1a1a"/><stop offset="0.02" stop-color="#1a1a1a"/><stop offset="0.35" stop-color="#404040"/><stop offset="0.68" stop-color="#404040"/><stop offset="0.98" stop-color="#1a1a1a"/><stop offset="1" stop-color="#1a1a1a"/></linearGradient><linearGradient id="linear-gradient-4" x2="1" gradientTransform="matrix(10.16, 0, 0, -16.57, 49.04, 189.86)" gradientUnits="userSpaceOnUse"><stop offset="0" stop-color="#1a1a1a"/><stop offset="0.71" stop-color="#1a1a1a"/><stop offset="1" stop-color="#404040"/></linearGradient><linearGradient id="linear-gradient-5" x2="1" gradientTransform="matrix(7.53, 0, 0, -12.27, 49.02, 189.86)" gradientUnits="userSpaceOnUse"><stop offset="0" stop-color="#404040"/><stop offset="0.8" stop-color="#404040"/><stop offset="0.92" stop-color="#404040"/><stop offset="1" stop-color="#404040"/></linearGradient><linearGradient id="linear-gradient-6" x2="1" gradientTransform="matrix(5.54, 39.04, 23.95, -9.04, 42.82, 206.15)" gradientUnits="userSpaceOnUse"><stop offset="0" stop-color="#404040"/><stop offset="0.02" stop-color="#404040"/><stop offset="0.94" stop-color="#404040"/><stop offset="1" stop-color="#1a1a1a"/></linearGradient><linearGradient id="linear-gradient-7" x2="1" gradientTransform="matrix(-10.28, 0, 0, 16.76, 57.57, 189.86)" gradientUnits="userSpaceOnUse"><stop offset="0" stop-color="#1a1a1a"/><stop offset="0.01" stop-color="#1a1a1a"/><stop offset="0.13" stop-color="#404040"/><stop offset="1" stop-color="#404040"/></linearGradient><linearGradient id="linear-gradient-8" x2="1" gradientTransform="matrix(16.05, 0, 0, -26.17, 43.25, 189.86)" gradientUnits="userSpaceOnUse"><stop offset="0" stop-color="#1a1a1a"/><stop offset="0.85" stop-color="#1a1a1a"/><stop offset="1" stop-color="#404040"/></linearGradient><linearGradient id="linear-gradient-9" x2="1" gradientTransform="matrix(6.25, -6.23, -3.82, -10.2, 55.06, 243.46)" gradientUnits="userSpaceOnUse"><stop offset="0" stop-color="#1a1a1a"/><stop offset="0.19" stop-color="#1a1a1a"/><stop offset="0.57" stop-color="#404040"/><stop offset="1" stop-color="#404040"/></linearGradient><linearGradient id="linear-gradient-10" x2="1" gradientTransform="matrix(8.51, 0, 0, -13.88, 48.29, 189.86)" gradientUnits="userSpaceOnUse"><stop offset="0" stop-color="#404040"/><stop offset="0.82" stop-color="#404040"/><stop offset="0.92" stop-color="#404040"/><stop offset="1" stop-color="#404040"/></linearGradient><linearGradient id="linear-gradient-11" x2="1" gradientTransform="matrix(2.48, -2.87, -1.76, -4.05, 54.15, 222.55)" gradientUnits="userSpaceOnUse"><stop offset="0" stop-color="#1a1a1a"/><stop offset="0.54" stop-color="#1a1a1a"/><stop offset="0.58" stop-color="#404040"/><stop offset="1" stop-color="#404040"/></linearGradient><linearGradient id="linear-gradient-12" x2="1" gradientTransform="matrix(2.55, -13.01, -7.98, -4.15, 90.67, 216.34)" gradientUnits="userSpaceOnUse"><stop offset="0" stop-color="#1a1a1a"/><stop offset="0.75" stop-color="#1a1a1a"/><stop offset="0.88" stop-color="#404040"/><stop offset="1" stop-color="#404040"/></linearGradient><linearGradient id="linear-gradient-13" x2="1" gradientTransform="matrix(6.52, 40.99, 25.14, -10.62, 63.12, 203.87)" gradientUnits="userSpaceOnUse"><stop offset="0" stop-color="#404040"/><stop offset="0.01" stop-color="#404040"/><stop offset="0.05" stop-color="#404040"/><stop offset="0.95" stop-color="#404040"/><stop offset="0.99" stop-color="#1a1a1a"/><stop offset="1" stop-color="#1a1a1a"/></linearGradient><linearGradient id="linear-gradient-14" x2="1" gradientTransform="matrix(0, 36.58, 22.43, 0, 62.42, 204.33)" gradientUnits="userSpaceOnUse"><stop offset="0" stop-color="#404040"/><stop offset="0.04" stop-color="#404040"/><stop offset="1" stop-color="#404040"/></linearGradient><linearGradient id="linear-gradient-15" x2="1" gradientTransform="matrix(0, 36.84, 22.6, 0, 62.42, 212.11)" gradientUnits="userSpaceOnUse"><stop offset="0" stop-color="#404040"/><stop offset="0.88" stop-color="#404040"/><stop offset="0.95" stop-color="#1a1a1a"/><stop offset="1" stop-color="#1a1a1a"/></linearGradient><linearGradient id="linear-gradient-16" x2="1" gradientTransform="matrix(2.52, -12.87, -7.89, -4.11, 107.8, 216.27)" gradientUnits="userSpaceOnUse"><stop offset="0" stop-color="#1a1a1a"/><stop offset="0.69" stop-color="#1a1a1a"/><stop offset="0.86" stop-color="#404040"/><stop offset="1" stop-color="#404040"/></linearGradient><linearGradient id="linear-gradient-17" x2="1" gradientTransform="matrix(5.64, 40.07, 24.58, -9.19, 98.84, 205.21)" gradientUnits="userSpaceOnUse"><stop offset="0" stop-color="#404040"/><stop offset="0.04" stop-color="#404040"/><stop offset="0.94" stop-color="#404040"/><stop offset="1" stop-color="#1a1a1a"/></linearGradient><linearGradient id="linear-gradient-18" x2="1" gradientTransform="matrix(11.83, -38.14, -23.39, -19.29, 121.81, 243.47)" gradientUnits="userSpaceOnUse"><stop offset="0" stop-color="#404040"/><stop offset="0.11" stop-color="#404040"/><stop offset="0.86" stop-color="#1a1a1a"/><stop offset="1" stop-color="#1a1a1a"/></linearGradient><linearGradient id="linear-gradient-19" x2="1" gradientTransform="matrix(11.91, -36.14, -22.16, -19.42, 121.89, 242.26)" gradientUnits="userSpaceOnUse"><stop offset="0" stop-color="#1a1a1a"/><stop offset="0.19" stop-color="#1a1a1a"/><stop offset="0.85" stop-color="#404040"/><stop offset="1" stop-color="#404040"/></linearGradient><linearGradient id="linear-gradient-20" x2="1" gradientTransform="matrix(7.47, 39.75, 24.38, -12.17, 146.25, 205.81)" gradientUnits="userSpaceOnUse"><stop offset="0" stop-color="#404040"/><stop offset="0.03" stop-color="#404040"/><stop offset="0.92" stop-color="#404040"/><stop offset="0.98" stop-color="#1a1a1a"/><stop offset="1" stop-color="#1a1a1a"/></linearGradient><linearGradient id="linear-gradient-21" x2="1" gradientTransform="matrix(0.38, 5.93, 3.64, -0.62, 162.27, 224.79)" gradientUnits="userSpaceOnUse"><stop offset="0" stop-color="#404040"/><stop offset="0.3" stop-color="#404040"/><stop offset="0.4" stop-color="#404040"/><stop offset="0.92" stop-color="#404040"/><stop offset="1" stop-color="#404040"/></linearGradient><linearGradient id="linear-gradient-22" x2="1" gradientTransform="matrix(3.93, -3.69, -2.26, -6.41, 156.95, 222.81)" gradientUnits="userSpaceOnUse"><stop offset="0" stop-color="#1a1a1a"/><stop offset="0.39" stop-color="#1a1a1a"/><stop offset="0.43" stop-color="#404040"/><stop offset="1" stop-color="#404040"/></linearGradient><linearGradient id="linear-gradient-23" x2="1" gradientTransform="matrix(7.7, -19.43, -11.92, -12.56, 152.88, 224.61)" gradientUnits="userSpaceOnUse"><stop offset="0" stop-color="#1a1a1a"/><stop offset="0.13" stop-color="#1a1a1a"/><stop offset="0.56" stop-color="#404040"/><stop offset="1" stop-color="#404040"/></linearGradient><linearGradient id="linear-gradient-24" x2="1" gradientTransform="matrix(-3.99, 22.99, 14.1, 6.51, 157.12, 202.95)" gradientUnits="userSpaceOnUse"><stop offset="0" stop-color="#1a1a1a"/><stop offset="0.56" stop-color="#1a1a1a"/><stop offset="1" stop-color="#404040"/></linearGradient><linearGradient id="linear-gradient-25" x2="1" gradientTransform="matrix(-1.57, 0, 0, 2.56, 174.37, 189.86)" gradientUnits="userSpaceOnUse"><stop offset="0" stop-color="#2ba14b"/><stop offset="0.95" stop-color="#2ba14b"/><stop offset="1" stop-color="#2ba14b"/></linearGradient><linearGradient id="linear-gradient-26" x2="1" gradientTransform="matrix(-9.35, 0, 0, 15.25, 183.53, 189.86)" gradientUnits="userSpaceOnUse"><stop offset="0" stop-color="#08692d"/><stop offset="0.25" stop-color="#2ba14b"/><stop offset="1" stop-color="#2ba14b"/></linearGradient><linearGradient id="linear-gradient-27" x2="1" gradientTransform="matrix(2.56, -13.06, -8.01, -4.17, 213.24, 216.37)" gradientUnits="userSpaceOnUse"><stop offset="0" stop-color="#1a1a1a"/><stop offset="0.69" stop-color="#1a1a1a"/><stop offset="0.86" stop-color="#404040"/><stop offset="1" stop-color="#404040"/></linearGradient><linearGradient id="linear-gradient-28" x2="1" gradientTransform="matrix(6.16, 40.07, 24.58, -10.04, 186.45, 205.41)" gradientUnits="userSpaceOnUse"><stop offset="0" stop-color="#404040"/><stop offset="0.04" stop-color="#404040"/><stop offset="0.94" stop-color="#404040"/><stop offset="0.99" stop-color="#1a1a1a"/><stop offset="1" stop-color="#1a1a1a"/></linearGradient><linearGradient id="linear-gradient-29" x2="1" gradientTransform="matrix(2.49, -12.73, -7.81, -4.06, 195.64, 216.32)" gradientUnits="userSpaceOnUse"><stop offset="0" stop-color="#1a1a1a"/><stop offset="0.7" stop-color="#1a1a1a"/><stop offset="0.86" stop-color="#404040"/><stop offset="1" stop-color="#404040"/></linearGradient><linearGradient id="linear-gradient-30" x2="1" gradientTransform="matrix(6.11, 39.85, 24.44, -9.95, 204.04, 205.18)" gradientUnits="userSpaceOnUse"><stop offset="0" stop-color="#404040"/><stop offset="0.04" stop-color="#404040"/><stop offset="0.95" stop-color="#404040"/><stop offset="1" stop-color="#1a1a1a"/></linearGradient><linearGradient id="linear-gradient-31" x2="1" gradientTransform="matrix(-26.29, -16.38, -10.05, 42.86, 221.12, 235.46)" gradientUnits="userSpaceOnUse"><stop offset="0" stop-color="#404040"/><stop offset="0.54" stop-color="#404040"/><stop offset="0.54" stop-color="#404040"/><stop offset="1" stop-color="#404040"/></linearGradient><linearGradient id="linear-gradient-32" x2="1" gradientTransform="matrix(7.35, -37.55, -23.03, -11.98, 224.53, 241.91)" gradientUnits="userSpaceOnUse"><stop offset="0" stop-color="#1a1a1a"/><stop offset="0.4" stop-color="#1a1a1a"/><stop offset="0.89" stop-color="#1a1a1a"/><stop offset="0.96" stop-color="#404040"/><stop offset="1" stop-color="#404040"/></linearGradient><linearGradient id="linear-gradient-33" x2="1" gradientTransform="matrix(0, -40.57, -24.88, 0, 217.84, 245.04)" gradientUnits="userSpaceOnUse"><stop offset="0" stop-color="#1a1a1a"/><stop offset="0.02" stop-color="#1a1a1a"/><stop offset="0.32" stop-color="#404040"/><stop offset="0.98" stop-color="#404040"/><stop offset="1" stop-color="#404040"/></linearGradient><linearGradient id="linear-gradient-34" x2="1" gradientTransform="matrix(0, -40.87, -25.06, 0, 217.84, 245.36)" gradientUnits="userSpaceOnUse"><stop offset="0" stop-color="#404040"/><stop offset="0.1" stop-color="#404040"/><stop offset="0.43" stop-color="#404040"/><stop offset="0.96" stop-color="#404040"/><stop offset="1" stop-color="#404040"/></linearGradient><linearGradient id="linear-gradient-35" x2="1" gradientTransform="matrix(8.56, -43.72, -26.81, -13.95, 235.36, 246.84)" gradientUnits="userSpaceOnUse"><stop offset="0" stop-color="#404040"/><stop offset="0.02" stop-color="#404040"/><stop offset="0.26" stop-color="#1a1a1a"/><stop offset="0.94" stop-color="#1a1a1a"/><stop offset="0.99" stop-color="#404040"/><stop offset="1" stop-color="#404040"/></linearGradient><linearGradient id="linear-gradient-36" x2="1" gradientTransform="matrix(2.04, 0, 0, -3.33, 250.62, 189.86)" gradientUnits="userSpaceOnUse"><stop offset="0" stop-color="#404040"/><stop offset="0.25" stop-color="#404040"/><stop offset="0.7" stop-color="#404040"/><stop offset="1" stop-color="#404040"/></linearGradient><linearGradient id="linear-gradient-37" x2="1" gradientTransform="matrix(-18.59, 0, 0, 30.32, 269.01, 189.86)" gradientUnits="userSpaceOnUse"><stop offset="0" stop-color="#1a1a1a"/><stop offset="0.11" stop-color="#404040"/><stop offset="1" stop-color="#404040"/></linearGradient><linearGradient id="linear-gradient-38" x2="1" gradientTransform="matrix(12.11, -17.99, -11.03, -19.74, 260.8, 243.18)" gradientUnits="userSpaceOnUse"><stop offset="0" stop-color="#1a1a1a"/><stop offset="0.36" stop-color="#1a1a1a"/><stop offset="0.52" stop-color="#404040"/><stop offset="1" stop-color="#404040"/></linearGradient><linearGradient id="linear-gradient-39" x2="1" gradientTransform="matrix(-26.41, 0, 0, 43.06, 265.85, 189.86)" gradientUnits="userSpaceOnUse"><stop offset="0" stop-color="#404040"/><stop offset="0.5" stop-color="#404040"/><stop offset="0.65" stop-color="#1a1a1a"/><stop offset="1" stop-color="#1a1a1a"/></linearGradient><linearGradient id="linear-gradient-40" x2="1" gradientTransform="matrix(0, -44.26, -27.14, 0, 247.44, 249.63)" gradientUnits="userSpaceOnUse"><stop offset="0" stop-color="#404040"/><stop offset="0.12" stop-color="#404040"/><stop offset="0.16" stop-color="#404040"/><stop offset="0.99" stop-color="#404040"/><stop offset="1" stop-color="#404040"/></linearGradient></defs><path class="cls-1" d="M28,246a7.27,7.27,0,0,1-4.7-1.59c-.3-.28-.33-.49-.33-1.08,0-2.86.09-4.39.14-5.3,0-.26,0-.48,0-.67,0-.56.09-.85.19-.85s.05.18.05.58v.16a15.53,15.53,0,0,0,.2,2.83A5.33,5.33,0,0,0,28.79,244c3.26,0,4.75-3.82,4.75-7.38a13.81,13.81,0,0,0-.77-5,20.61,20.61,0,0,0-3-5.08l-1.52-2a24,24,0,0,1-3.58-6.32,16,16,0,0,1-.89-5.53,12.59,12.59,0,0,1,1.89-7.17,6,6,0,0,1,5.11-2.75,8.28,8.28,0,0,1,3.14.56,4.42,4.42,0,0,0,1.43.33.15.15,0,0,1,.14.08.38.38,0,0,1,0,.22,29.63,29.63,0,0,0-.2,4.86c0,1.41-.12,1.52-.15,1.52s-.1-.37-.12-1v-.11a7.2,7.2,0,0,0-.43-2.33c-.1-.23-1-2.28-4.46-2.28a3.45,3.45,0,0,0-2.92,1.7,8.66,8.66,0,0,0-1.16,4.74,10.6,10.6,0,0,0,.77,4.33,22.06,22.06,0,0,0,3.2,5.08l1,1.21a25.66,25.66,0,0,1,4,6.7,16.78,16.78,0,0,1,1,6.15,18.33,18.33,0,0,1-.57,4.4,11.49,11.49,0,0,1-2.3,4.74A6.66,6.66,0,0,1,28,246" transform="translate(-22.99 -202.73)"/><path class="cls-2" d="M34.47,204.83a13.69,13.69,0,0,1,.72,5.52c.07,0,.17-.24.17-1.55a28.45,28.45,0,0,1,.2-4.86.39.39,0,0,0,0-.25,6.5,6.5,0,0,1-1.07,1.14" transform="translate(-22.99 -202.73)"/><path class="cls-3" d="M23.37,236.47c-.1,0-.17.27-.21.88,0,.89-.17,2.32-.17,6a2.42,2.42,0,0,0,.06.67,8.8,8.8,0,0,1,1-.79,15.93,15.93,0,0,1-.67-6.73" transform="translate(-22.99 -202.73)"/><path class="cls-4" d="M31,221.67l-.95-1.22c-3.25-4.14-4-6.24-4-9.38,0-4,1.73-6.41,4.06-6.41h.24c2.94.09,4,1.67,4.2,2.26a7.58,7.58,0,0,1,.44,2.43c0,.78.07,1,.14,1h0a13.69,13.69,0,0,0-.72-5.52,8.58,8.58,0,0,0-4.06-1.17,4.85,4.85,0,0,0-4.06,2.42c-2,3-2.07,9.68,1.76,14.93.29.4,2.33,3,2.64,3.36,3.89,4.83,5.48,12.1,2.59,17.44A5.47,5.47,0,0,1,28.48,245,6.22,6.22,0,0,1,24,243.2a8.8,8.8,0,0,0-1,.79.87.87,0,0,0,.28.43A7.28,7.28,0,0,0,28,246h.44a6.55,6.55,0,0,0,4.67-2.31c2.34-2.7,2.88-6.9,2.88-9.16,0-4.42-1-7.73-5-12.87" transform="translate(-22.99 -202.73)"/><path class="cls-5" d="M26.35,206.08a4.85,4.85,0,0,1,4.06-2.42,8.58,8.58,0,0,1,4.06,1.17,6.5,6.5,0,0,0,1.07-1.14.16.16,0,0,0-.15-.08,4.31,4.31,0,0,1-1.42-.33,8.4,8.4,0,0,0-3.15-.55h-.41c-4.06.25-6.6,4.21-6.6,9.93,0,3.75.88,7.07,4.47,11.87l1.52,2c2.91,3.93,3.73,6.24,3.73,10,0,3.54-1.49,7.35-4.74,7.35h-.31a5.28,5.28,0,0,1-4.84-3.91,16.26,16.26,0,0,1-.21-3c0-.45,0-.61-.06-.61A15.93,15.93,0,0,0,24,243.2,6.22,6.22,0,0,0,28.48,245a5.47,5.47,0,0,0,4.86-3.23c2.89-5.34,1.3-12.61-2.59-17.44-.31-.37-2.35-3-2.64-3.36-3.83-5.25-3.74-11.93-1.76-14.93" transform="translate(-22.99 -202.73)"/><path class="cls-1" d="M55.88,245.39c-1.85,0-3-.06-3.92-.12l-1-.05-1.32-.06c-1,0-2-.1-2.92-.1a9.8,9.8,0,0,0-1.2.08c-.42,0-.86.08-1.3.08s-.53-.09-.53-.14.09-.14.22-.14a2.32,2.32,0,0,0,.51-.05c1.18-.28,1.57-1.68,1.63-5.77,0-2.13.06-5,.06-9.89v-9.71c0-8.61,0-10.17-.06-11.93s-.28-3.32-1.5-3.62a3.62,3.62,0,0,0-1-.11c-.35,0-.42-.08-.42-.14s.14-.18.53-.18c.79,0,1.69,0,3.82.18h0c.81,0,7,0,7.74-.07a5.36,5.36,0,0,0,1.7-.34l.17-.12c.07-.06.12-.1.16-.1h0a1.38,1.38,0,0,1,0,.45c0,.14,0,.29-.06.48a17.1,17.1,0,0,0-.21,2.12c0,.6,0,1.11-.09,1.88,0,.3,0,.64-.05,1.05,0,.74-.11.74-.12.74s-.08-.18-.11-.69c0-.14,0-.27,0-.4s0-.48-.08-.87c-.17-1.45-1.11-1.85-2.79-2.07-.58,0-4.27-.16-4.65-.16-.21,0-.23,0-.23.41v15.63c0,.34,0,.36.2.36,1.09,0,4.7,0,5.42-.11,1.12-.12,1.81-.23,2-.9,0-.1.1-.32.16-.32s.05.22.05.31a5.76,5.76,0,0,1-.07.68c-.05.45-.14,1.14-.2,2.24s-.09,1.91-.11,2.5c0,.28,0,.52,0,.76,0,.67-.1.75-.15.75s-.09-.18-.09-.69a5.82,5.82,0,0,0-.06-1,2.46,2.46,0,0,0-2-2c-.92-.17-4.27-.28-4.92-.28-.18,0-.2,0-.2.36v4.91c0,.53,0,1.41,0,2.43,0,2.61,0,6.18,0,7,.06,2.51.25,3.5,1.13,4a5,5,0,0,0,2.81.5,8.49,8.49,0,0,0,3.3-.55c1-.51,1.53-1.13,1.74-3.5.07-.67.14-.81.18-.81s0,0,0,0a2.07,2.07,0,0,1,0,.78v.07c-.18,2.35-.37,4.21-.54,5.23-.13.78-.15.92-1.71.92" transform="translate(-22.99 -202.73)"/><path class="cls-2" d="M56.05,242.73l-.07,0,.61,1.24h0l0,0-.6-1.22" transform="translate(-22.99 -202.73)"/><path class="cls-1" d="M48.8,204.74h-.07l.26.91,0,0h0l-.26-.9" transform="translate(-22.99 -202.73)"/><path class="cls-6" d="M55.43,223.2a4.52,4.52,0,0,0,1.3-2.53c-.07,0-.14.23-.17.34-.24.66-1,.77-2,.88-.78.11-5,.11-5.39.11-.12,0-.17,0-.19-.12L48.7,223c.58,0,5.64,0,6.73.16" transform="translate(-22.99 -202.73)"/><path class="cls-7" d="M48.7,223l.27,1c0-.06.09-.07.2-.07.58,0,3.93.11,4.85.27a2.42,2.42,0,0,1,2,2,5.05,5.05,0,0,1,.07,1c0,.49,0,.71.1.71a8.9,8.9,0,0,0-.79-4.76c-1.09-.21-6.15-.16-6.73-.16" transform="translate(-22.99 -202.73)"/><path class="cls-2" d="M55.43,223.2a8.9,8.9,0,0,1,.79,4.76c.07,0,.13-.11.17-.77s0-1.55.13-3.26.27-2.48.27-2.92c0-.11,0-.34-.06-.34a4.52,4.52,0,0,1-1.3,2.53" transform="translate(-22.99 -202.73)"/><path class="cls-2" d="M57.61,244.48c.27-1.66.51-4.86.54-5.31a1.75,1.75,0,0,0-.06-.82c-.22,3.72-.93,4.77-1.45,5.67a10.86,10.86,0,0,1,.79,1.08,1.77,1.77,0,0,0,.18-.62" transform="translate(-22.99 -202.73)"/><path class="cls-2" d="M56.08,204.93a10.3,10.3,0,0,1,.71,4.92s.11-.11.14-.77c.07-1.44.1-2.1.14-2.93a21.36,21.36,0,0,1,.27-2.59c0-.29,0-.45,0-.49a6.39,6.39,0,0,1-1.25,1.86" transform="translate(-22.99 -202.73)"/><path class="cls-8" d="M45.9,204.32a3.92,3.92,0,0,0-2.75-.62v0c0,.11.13.17.44.17a3.48,3.48,0,0,1,.94.11c1.12.27,1.43,1.71,1.49,3.59s.07,3.31.07,11.92v9.72c0,4.92,0,7.74-.07,9.89-.06,4.14-.47,5.47-1.62,5.74a2,2,0,0,1-.51.06c-.13,0-.24.05-.24.16a3.17,3.17,0,0,0,2.47-.7,8.5,8.5,0,0,0,1.39-1.74V206.15a7.57,7.57,0,0,0-1.61-1.83" transform="translate(-22.99 -202.73)"/><path class="cls-9" d="M49.29,243.86a4,4,0,0,1-1.78-1.22,8.5,8.5,0,0,1-1.39,1.74,3.17,3.17,0,0,1-2.47.7h0c0,.11.17.17.55.17.88,0,1.69-.17,2.5-.17,1.32,0,2.88.11,4.24.17s2.43.16,4.94.16c1,0,1.37,0,1.55-.31a12.21,12.21,0,0,0-.79-1.09c-1,.42-5.6.58-7.35-.15" transform="translate(-22.99 -202.73)"/><path class="cls-10" d="M47.51,206.15a3.67,3.67,0,0,1,1-1.33,7.47,7.47,0,0,1,2.73-.2,30.22,30.22,0,0,1,4.83.31,6.39,6.39,0,0,0,1.25-1.86h0c-.07,0-.17.11-.34.22a5.51,5.51,0,0,1-1.69.33c-.78.06-7.52.06-7.76.06-2.13-.17-3-.17-3.82-.17-.39,0-.53.1-.54.2a3.92,3.92,0,0,1,2.75.62,7.57,7.57,0,0,1,1.61,1.83" transform="translate(-22.99 -202.73)"/><path class="cls-11" d="M58.08,238.35c-.07,0-.13.22-.2.82-.2,2.38-.71,3-1.73,3.48l-.15.07.64,1.3c.52-.9,1.23-2,1.45-5.67h0" transform="translate(-22.99 -202.73)"/><path class="cls-12" d="M56.08,204.93a30.22,30.22,0,0,0-4.83-.31,12,12,0,0,0-2.5.1l.28.95.11,0c.37,0,4.06.11,4.64.17,1.69.22,2.61.72,2.78,2.15.07.61.07.78.1,1.16,0,.56.07.72.13.72a10.3,10.3,0,0,0-.71-4.92" transform="translate(-22.99 -202.73)"/><path class="cls-13" d="M56,242.72a8.59,8.59,0,0,1-3.13.49,5.35,5.35,0,0,1-2.82-.5c-.88-.55-1-1.55-1.11-4,0-1.16,0-7.57,0-9.45v-4.86a.76.76,0,0,1,0-.31l-.27-1,.25-1.16a2.64,2.64,0,0,1,0-.32V206.15c0-.26,0-.39.06-.45l0,0-.28-.95a1,1,0,0,0-.23.1.91.91,0,0,0-.23.17,5.87,5.87,0,0,0-.78,1.16v36.49a4,4,0,0,0,1.78,1.22c1.75.73,6.31.57,7.35.16l-.64-1.3" transform="translate(-22.99 -202.73)"/><path class="cls-1" d="M89.07,245.61c-.27,0-.71-.67-2.46-3.53-.36-.54-5.23-8.63-8.84-15-3.88-6.82-7.7-13.76-8.84-15.85a0,0,0,0,0,0,0h0s0,0,0,0l.44,26.45c.08,4.92.49,6.83,1.54,7a7.18,7.18,0,0,0,1.46.11c.21,0,.29.07.29.14s0,.19-.73.19c-1.26,0-2.5-.09-3.1-.14l-.36,0-.55,0c-.74,0-2,.13-2.7.13-.5,0-.52-.16-.52-.19s.06-.14.25-.14a7.88,7.88,0,0,0,1.11-.11c1.18-.23,1.3-2.62,1.3-7.65V229c0-10.51,0-13.52,0-15.51,0-1.81,0-2.89,0-8,0-2.3.13-2.73.36-2.73s.57.67.87,1.22c.11.2.22.39.31.53.49.92,5.51,9.77,10.77,18.94,1.77,3.1,3.65,6.46,5.16,9.16,1.37,2.46,2.45,4.4,3,5.26h0s0,0,0,0l-.37-28a26.11,26.11,0,0,0-.22-4.15c-.21-1-.6-1.55-1.28-1.68a7.18,7.18,0,0,0-1.46-.11c-.21,0-.29-.07-.29-.14s0-.19.73-.19c1.26,0,2.5.09,3.09.14l.36,0,.5,0c.64,0,1.73-.13,2.45-.13.5,0,.52.16.52.19s-.06.14-.25.14a8.17,8.17,0,0,0-1.12.11c-1.06.22-1.06,1.66-1.06,5.5l-.07,32.24c0,3.71-.08,3.9-.29,3.9" transform="translate(-22.99 -202.73)"/><path class="cls-2" d="M88.64,240.36a.27.27,0,0,1,0-.07v0a5.08,5.08,0,0,1-.53,1l0,.06,0,.12a4.09,4.09,0,0,0,.57-1l0,0" transform="translate(-22.99 -202.73)"/><path class="cls-1" d="M68.38,242.64A8.52,8.52,0,0,1,67,244.39c-.69.67-1.23.69-2.36.69,0,.07.15.17.53.17,1,0,3.08-.17,3.25-.17s1.8.17,3.46.17c.54,0,.69-.1.73-.17-1.43,0-2.16-.07-2.79-.65a8.25,8.25,0,0,1-1.46-1.79" transform="translate(-22.99 -202.73)"/><path class="cls-2" d="M87.07,204.25a5.49,5.49,0,0,1,1.37,1.58,5.77,5.77,0,0,1,1.12-1.56,2.87,2.87,0,0,1,2.32-.57c0-.07-.09-.2-.54-.2-1,0-2.78.17-3,.17s-1.79-.17-3.45-.17c-.65,0-.73.14-.75.2,1.21,0,2.1-.07,2.88.55" transform="translate(-22.99 -202.73)"/><path class="cls-14" d="M91.88,203.7a2.87,2.87,0,0,0-2.32.57,5.77,5.77,0,0,0-1.12,1.56h0l.18,34.45a2.35,2.35,0,0,1-.54,1.05c.09.36,1,4.06,1.07,4.29.17-.11.23-.73.23-3.91l.06-32.25c0-3.81,0-5.24,1-5.46a7.2,7.2,0,0,1,1.12-.11c.24,0,.27-.11.27-.17v0" transform="translate(-22.99 -202.73)"/><path class="cls-15" d="M68.77,207.85c-.09-.37-1.09-5.1-1.09-5.11-.23.08-.32.75-.32,2.75,0,10.71,0,3.53,0,23.47v8.17c0,5-.14,7.4-1.29,7.62a7,7,0,0,1-1.12.11c-.23,0-.27.11-.27.17a.11.11,0,0,0,0,.05,2.79,2.79,0,0,0,2.37-.69,8.79,8.79,0,0,0,1.35-1.75l-.2-33.85a1.73,1.73,0,0,1,.59-.94" transform="translate(-22.99 -202.73)"/><path class="cls-2" d="M87.82,237.85c-1.09-1.82-4.78-8.56-8.13-14.41-5.22-9.12-10.26-18-10.77-18.94-.34-.56-.92-1.77-1.19-1.77h0s1,4.74,1.09,5.11l19.31,33.48a2.35,2.35,0,0,0,.54-1.05l-.8-2.43" transform="translate(-22.99 -202.73)"/><path class="cls-16" d="M88.44,205.83a5.49,5.49,0,0,0-1.37-1.58c-.78-.62-1.67-.55-2.88-.55v0c0,.06,0,.17.31.17A7,7,0,0,1,86,204c1.43.27,1.46,2.21,1.49,5.8l.38,28,.8,2.43-.18-34.45" transform="translate(-22.99 -202.73)"/><path class="cls-2" d="M68.38,242.64a8.25,8.25,0,0,0,1.46,1.79c.63.58,1.36.65,2.79.65a.11.11,0,0,0,0-.05c0-.06,0-.17-.3-.17a7.18,7.18,0,0,1-1.46-.11c-1.11-.22-1.45-2.48-1.52-7l-.44-26.45-.74-2.5.2,33.85" transform="translate(-22.99 -202.73)"/><path class="cls-17" d="M88.08,241.33,68.77,207.85a1.73,1.73,0,0,0-.59.94l.74,2.5c1.08,2,4.91,8.94,8.84,15.85,3.59,6.29,8.47,14.41,8.84,15,1.79,2.93,2.2,3.54,2.47,3.54l.08,0c-.05-.23-1-3.93-1.07-4.29" transform="translate(-22.99 -202.73)"/><path class="cls-1" d="M107.56,245.22c-1.26,0-2.77-.09-3.5-.14l-.43,0-.56,0c-.76,0-2,.13-2.76.13-.5,0-.52-.16-.52-.19s.07-.14.25-.14a3.23,3.23,0,0,0,1-.11c.72-.23.86-2.08,1-3.56.17-2.32.16-6.59.16-12v-9.71c0-8.62,0-10.17-.06-11.93s-.28-3.32-1.5-3.62a3.62,3.62,0,0,0-1-.11c-.35,0-.42-.08-.42-.14s.14-.19.53-.19c1.14,0,2.64.09,3.37.14l.45,0,.57,0c.76,0,2-.13,2.75-.13.39,0,.53.12.53.19s-.12.14-.36.14a2.62,2.62,0,0,0-.88.11c-.9.3-1.08,1.92-1.14,3.62s-.08,3.31-.08,11.93v9.71c0,5.4,0,9.67.18,12,.1,1.6.3,3.33,1.34,3.56a7.18,7.18,0,0,0,1.46.11c.21,0,.29.07.29.14s0,.19-.73.19" transform="translate(-22.99 -202.73)"/><path class="cls-2" d="M107,203.5c-1,0-3.15.17-3.32.17s-2.3-.17-3.82-.17c-.39,0-.53.1-.54.2a4,4,0,0,1,2.79.75,7.26,7.26,0,0,1,1.57,1.7A8.7,8.7,0,0,1,105,204.4c.71-.69,1.26-.7,2.45-.7,0-.1-.18-.2-.54-.2" transform="translate(-22.99 -202.73)"/><path class="cls-1" d="M105.11,244.39a7.23,7.23,0,0,1-1.48-1.75,8.41,8.41,0,0,1-1.38,1.74c-.72.7-1.27.7-2.47.7,0,.07.15.17.53.17,1,0,3.15-.17,3.32-.17s2.27.17,3.93.17c.54,0,.69-.1.73-.17-1.72,0-2.42,0-3.18-.69" transform="translate(-22.99 -202.73)"/><path class="cls-18" d="M108,244.86a7,7,0,0,1-1.45-.11c-.73-.16-1-1.06-1.19-2.15a12.64,12.64,0,0,1-.13-1.38c-.17-2.32-.17-6.68-.17-12v-9.71c0-8.62,0-10.17.06-11.93,0-.53,0-1,.1-1.44.14-1.16.43-2,1-2.15a2.62,2.62,0,0,1,.88-.11c.21,0,.37-.06.37-.17v0c-1.19,0-1.74,0-2.45.7a8.7,8.7,0,0,0-1.41,1.75v36.49a7.23,7.23,0,0,0,1.48,1.75c.76.65,1.46.69,3.18.69a.06.06,0,0,0,0-.05c0-.06,0-.17-.31-.17" transform="translate(-22.99 -202.73)"/><path class="cls-19" d="M102.06,204.45a4,4,0,0,0-2.79-.75v0c0,.11.14.17.44.17a3.51,3.51,0,0,1,1,.11c.81.2,1.2,1,1.37,2.15a12.32,12.32,0,0,1,.12,1.44c.07,1.76.07,3.31.07,11.93v9.71c0,5.31,0,9.67-.17,12,0,.46-.08.93-.14,1.38-.13,1.09-.36,2-.84,2.15a3.23,3.23,0,0,1-1,.11c-.23,0-.27.11-.27.17a.11.11,0,0,0,0,.05c1.2,0,1.75,0,2.47-.7a8.41,8.41,0,0,0,1.38-1.74V206.15a7.26,7.26,0,0,0-1.57-1.7" transform="translate(-22.99 -202.73)"/><path class="cls-1" d="M127.54,204.58c-2.89,0-5.34,1.57-7.07,4.56a19,19,0,0,0-2.08,5.68,38.29,38.29,0,0,0-.75,8,43.56,43.56,0,0,0,.83,8.75,25.69,25.69,0,0,0,2.3,6.67c2,3.72,4.71,5.76,7.72,5.76,1,0,3.6-.33,5.83-3.45a17,17,0,0,0,2.5-5.77,40.23,40.23,0,0,0,1-9.75c0-6.21-1.09-11.46-3.15-15.17-1.87-3.38-4.41-5.23-7.17-5.23m0,41.41a9.68,9.68,0,0,1-6-2,14.47,14.47,0,0,1-4.08-5.12,33.36,33.36,0,0,1-3.09-14.56,32.78,32.78,0,0,1,3.17-14.13c1.71-3.39,4.87-7.43,10.16-7.43a10.31,10.31,0,0,1,5.29,1.42,12.92,12.92,0,0,1,4.21,4.1c2.48,3.72,3.79,9,3.79,15.16s-1.31,11.77-3.69,15.91a14.79,14.79,0,0,1-4.25,4.86,9.59,9.59,0,0,1-5.55,1.78" transform="translate(-22.99 -202.73)"/><path class="cls-20" d="M128.53,245c-6.47,0-12.43-6.88-12.43-21.13,0-13.43,5.46-20.3,11.43-20.3s12,6.13,12,21.41c0,15.59-7.77,20-11,20m-.75-42.31c-9.35,0-13.34,12.64-13.34,21.59,0,9.94,3.86,21.7,13.14,21.7,8.16,0,13.51-10.21,13.51-22.58,0-12.87-5.69-20.71-13.31-20.71" transform="translate(-22.99 -202.73)"/><path class="cls-21" d="M128.49,243.92c-6.09,0-10.84-8.28-10.84-21.15,0-12.09,4.24-18.16,9.89-18.16,5.35,0,10.3,7.12,10.3,20.37,0,16.07-6.3,18.94-9.35,18.94m-1-40.31c-6,0-11.43,6.87-11.43,20.3,0,14.26,6,21.13,12.43,21.13,3.22,0,11-4.43,11-20,0-15.28-6.06-21.41-12-21.41" transform="translate(-22.99 -202.73)"/><path class="cls-1" d="M155.72,205.24a6.5,6.5,0,0,0-2.27.33h0c-.16.11-.27.18-.27.57v18.5a.58.58,0,0,0,.18.46c.51.49,1.87.78,3.64.78a3.2,3.2,0,0,0,2.55-1c1.3-1.45,2.08-4.64,2.08-8.53a17.81,17.81,0,0,0-1.58-8.13,4.84,4.84,0,0,0-4.3-2.94m14.19,40c-1.83,0-2.71-.27-3.61-1.06-1.34-1.17-2.46-3.57-4.14-7.19l-.43-.93c-.78-1.67-1.6-3.5-2.32-5.12-.58-1.31-1.08-2.44-1.41-3.11-.09-.21-.16-.29-.25-.29l-4.47-.11c-.12,0-.13,0-.13.25v1.54c0,5.4,0,9.67.18,12,.09,1.42.33,3.32,1.34,3.56a3.59,3.59,0,0,0,1,.12h.53c.18,0,.25.07.25.14s0,.19-.73.19c-1.23,0-2.69-.09-3.4-.14l-.42,0-.57,0c-.76,0-2,.13-2.75.13-.5,0-.53-.16-.53-.19s.07-.14.25-.14a3.2,3.2,0,0,0,1-.11c.72-.23.87-2.08,1-3.56.17-2.32.16-6.59.16-12v-9.71c0-8.61,0-10.17-.06-11.93s-.28-3.32-1.5-3.62a3.62,3.62,0,0,0-.95-.11c-.35,0-.42-.08-.42-.14s.14-.19.53-.19c1.2,0,2.56.09,3.29.13l.54,0,1.14-.05c.93,0,2.19-.11,2.85-.11,2,0,4.36.29,6.19,2.42a12.27,12.27,0,0,1,2.33,7.49,22.23,22.23,0,0,1-4.09,12.74,0,0,0,0,0,0,0c.34.71.68,1.41,1,2.09,2.32,4.85,4.33,9,6.05,12,1.58,2.71,2.89,4.1,4.14,4.37a5,5,0,0,0,1.33.17c.23,0,.28.12.28.15s-.09.21-.79.21h-2.41" transform="translate(-22.99 -202.73)"/><path class="cls-1" d="M153.2,205.82a.28.28,0,0,1,.05-.09l-.28-.92-.06.05.29,1" transform="translate(-22.99 -202.73)"/><path class="cls-1" d="M153.34,244.44a6.84,6.84,0,0,1-1.44-1.8,9,9,0,0,1-1.37,1.76c-.73.7-1.27.64-2.49.64,0,.07.07.21.54.21,1,0,3.15-.17,3.31-.17s2.21.17,3.83.17c.71,0,.75-.17.75-.22-1.8,0-2.36.06-3.13-.59" transform="translate(-22.99 -202.73)"/><path class="cls-22" d="M150.35,204.32c-.82-.65-1.56-.62-2.82-.62v0c0,.11.13.17.44.17a3.48,3.48,0,0,1,.94.11c1.12.27,1.43,1.71,1.49,3.59s.07,3.31.07,11.92v9.72c0,5.31,0,9.67-.17,12-.13,1.6-.3,3.31-1,3.53a3.2,3.2,0,0,1-1,.11c-.23,0-.27.11-.27.17h0c1.23,0,1.77.06,2.5-.64a8.55,8.55,0,0,0,1.36-1.76V206.15a7.44,7.44,0,0,0-1.54-1.83" transform="translate(-22.99 -202.73)"/><path class="cls-23" d="M166.39,241.74c-2.27-3.92-5.75-11.43-7-14.38-.31,0-1-.48-1.54-.61s-3-.08-5-.35l.38,1.11s0,0,.09,0l4.47.11c.07,0,.14,0,.24.27.71,1.49,2.3,5.19,3.73,8.23,1.93,4.14,3.11,6.85,4.57,8.12.88.77,1.73,1.05,3.62,1.05h2.41c.73,0,.81-.11.81-.22-1.49,0-4.57.46-6.74-3.29" transform="translate(-22.99 -202.73)"/><path class="cls-24" d="M156.2,244.86a5.08,5.08,0,0,1-1.53-.11c-.95-.22-1.22-1.93-1.32-3.53-.17-2.32-.17-6.68-.17-12v-1.54a.77.77,0,0,1,0-.18l-.38-1.11.37-1.71V206.15a.9.9,0,0,1,0-.34l-.3-1a4.2,4.2,0,0,0-1,1.33v36.49a7.12,7.12,0,0,0,1.45,1.8c.77.65,1.33.59,3.13.59,0-.06,0-.17-.27-.17" transform="translate(-22.99 -202.73)"/><path class="cls-25" d="M155.83,204.38c-1,0-2.37,0-2.9.44l.3,1a.5.5,0,0,1,.22-.21,6.39,6.39,0,0,1,2.27-.33c3.63,0,5.86,4.14,5.86,11,0,4.2-.88,7.18-2.06,8.51a3.2,3.2,0,0,1-2.55,1.05c-1.49,0-3-.23-3.62-.78a.59.59,0,0,1-.17-.4l-.37,1.71c2,.27,4.49.23,5,.35s1.23.61,1.54.61c.06,0,.22-.92.35-1.25A22.15,22.15,0,0,0,163,214.17c0-5.58-2.49-9.79-7.18-9.79" transform="translate(-22.99 -202.73)"/><path class="cls-2" d="M172.83,244.86a5.28,5.28,0,0,1-1.33-.16c-1-.22-2.3-1.22-4.13-4.37-2-3.42-4.26-8.33-7-14.13l-.63-.09c-.12.32-.29,1.25-.35,1.25,1.29,2.95,4.77,10.46,7,14.38,2.17,3.75,5.25,3.29,6.74,3.29h0c0-.06-.07-.17-.3-.17" transform="translate(-22.99 -202.73)"/><path class="cls-26" d="M162.09,205.93c-1.8-2.1-4.06-2.43-6.2-2.43-1,0-3.62.17-4,.17-.23,0-2.16-.17-3.82-.17-.39,0-.53.1-.54.2,1.26,0,2,0,2.82.62a7.44,7.44,0,0,1,1.54,1.83,4.2,4.2,0,0,1,1-1.33c.53-.46,1.89-.44,2.9-.44,4.69,0,7.18,4.21,7.18,9.79a22.12,22.12,0,0,1-3.31,11.94l.63.09a22.15,22.15,0,0,0,4.1-12.76,12.16,12.16,0,0,0-2.34-7.51" transform="translate(-22.99 -202.73)"/><path class="cls-27" d="M172.86,229.15s0,0,0,0a1.75,1.75,0,0,1,0-.56l0-.17.44-2.86c.07-.37.09-.4.46-.4h7.52c.55,0,.83,0,.83.18s-.35.27-.79.41l-.32.1a61.81,61.81,0,0,0-6.71,2.65l-.47.24a3.42,3.42,0,0,1-1,.42" transform="translate(-22.99 -202.73)"/><path class="cls-28" d="M174.37,226.82c-.26-.47-.79-1.41-.93-1.63a.78.78,0,0,0-.11.34l-.44,2.88a2.66,2.66,0,0,0-.07.74,11.69,11.69,0,0,1,1.55-2.33" transform="translate(-22.99 -202.73)"/><path class="cls-29" d="M181.33,225.09h-7.52c-.21,0-.31,0-.37.1.14.22.67,1.16.93,1.63a74,74,0,0,1,7.8-1.51c0-.11-.1-.22-.84-.22" transform="translate(-22.99 -202.73)"/><path class="cls-30" d="M174.37,226.82a11.69,11.69,0,0,0-1.55,2.33s0,0,0,0a6.76,6.76,0,0,0,1.49-.66,57.65,57.65,0,0,1,6.71-2.65c.64-.23,1.11-.34,1.11-.56a74,74,0,0,0-7.8,1.51" transform="translate(-22.99 -202.73)"/><path class="cls-1" d="M213,245.22c-1.26,0-2.77-.09-3.5-.14l-.43,0-.57,0c-.76,0-2,.13-2.75.13-.5,0-.53-.16-.53-.19s.07-.14.26-.14a3.26,3.26,0,0,0,1-.11c.71-.23.86-2.08,1-3.56.17-2.32.17-6.59.17-12v-6c0-.13,0-.12-.07-.12H193c-.08,0-.11,0-.11.12v6c0,5.4,0,9.67.18,12,.1,1.6.3,3.33,1.34,3.56a7.18,7.18,0,0,0,1.46.11c.22,0,.29.07.29.14s0,.19-.73.19c-1.25,0-2.77-.09-3.49-.14l-.43,0-.57,0c-.76,0-2,.13-2.75.13-.5,0-.53-.16-.53-.19s.07-.14.26-.14a3.26,3.26,0,0,0,1-.11c.71-.23.86-2.08,1-3.56.17-2.32.16-6.59.16-12v-9.71c0-8.61,0-10.17-.06-11.93s-.27-3.32-1.5-3.62a3.6,3.6,0,0,0-.94-.11c-.35,0-.43-.08-.43-.14s.14-.19.53-.19c1.14,0,2.65.09,3.37.14l.46,0,.56,0c.76,0,2-.13,2.76-.13.38,0,.52.12.52.19s-.12.14-.35.14a2.67,2.67,0,0,0-.89.11c-.89.3-1.08,1.92-1.14,3.62s-.07,3.32-.07,11.93v1.38c0,.12,0,.16.1.16h14.63c.07,0,.07,0,.07-.16v-1.38c0-8.61,0-10.17-.06-11.93s-.28-3.32-1.5-3.62a3.62,3.62,0,0,0-1-.11c-.35,0-.42-.08-.42-.14s.13-.19.52-.19c1.14,0,2.65.09,3.37.14l.46,0,.57,0c.76,0,2-.13,2.75-.13.38,0,.52.12.52.19s-.12.14-.35.14a2.67,2.67,0,0,0-.89.11c-.89.3-1.08,1.92-1.14,3.62s-.07,3.32-.07,11.93v9.71c0,5.4,0,9.67.17,12,.11,1.6.31,3.33,1.34,3.56a7.23,7.23,0,0,0,1.47.11c.21,0,.28.07.28.14s0,.19-.72.19" transform="translate(-22.99 -202.73)"/><path class="cls-2" d="M194.81,203.5c-1,0-3.15.17-3.32.17s-2.31-.17-3.83-.17c-.39,0-.53.1-.54.2a4,4,0,0,1,2.8.75,7.73,7.73,0,0,1,1.57,1.7,8.28,8.28,0,0,1,1.4-1.75c.72-.69,1.26-.7,2.46-.7,0-.1-.19-.2-.54-.2" transform="translate(-22.99 -202.73)"/><path class="cls-2" d="M212.42,203.5c-1,0-3.15.17-3.32.17s-2.31-.17-3.83-.17c-.38,0-.53.1-.54.2a4,4,0,0,1,2.8.75,7.49,7.49,0,0,1,1.57,1.7,9,9,0,0,1,1.4-1.75c.72-.69,1.26-.7,2.46-.7,0-.1-.19-.2-.54-.2" transform="translate(-22.99 -202.73)"/><path class="cls-1" d="M210.57,244.39a6.77,6.77,0,0,1-1.47-1.75,8.8,8.8,0,0,1-1.39,1.75c-.72.69-1.26.69-2.46.69,0,.07.14.17.53.17,1,0,3.15-.17,3.32-.17s2.27.17,3.93.17c.54,0,.69-.1.73-.17-1.73,0-2.43,0-3.19-.69" transform="translate(-22.99 -202.73)"/><path class="cls-1" d="M193,244.39a6.77,6.77,0,0,1-1.47-1.75,8.8,8.8,0,0,1-1.39,1.75c-.72.69-1.26.69-2.46.69,0,.07.14.17.53.17,1,0,3.15-.17,3.32-.17s2.27.17,3.92.17c.55,0,.69-.1.74-.17-1.73,0-2.43,0-3.19-.69" transform="translate(-22.99 -202.73)"/><path class="cls-31" d="M213.47,244.86a7.13,7.13,0,0,1-1.46-.11c-.72-.15-1-1.06-1.19-2.15-.06-.44-.1-.92-.13-1.38-.17-2.32-.17-6.68-.17-12v-9.71c0-8.62,0-10.17.07-11.93,0-.53,0-1,.1-1.44.14-1.16.42-2,1-2.15a2.59,2.59,0,0,1,.88-.11c.2,0,.37-.06.37-.17v0c-1.2,0-1.74,0-2.46.7a9,9,0,0,0-1.4,1.75v36.49a6.77,6.77,0,0,0,1.47,1.75c.76.65,1.46.69,3.19.69a.11.11,0,0,0,0-.05c0-.06,0-.17-.3-.17" transform="translate(-22.99 -202.73)"/><path class="cls-32" d="M189.92,204.45a3.94,3.94,0,0,0-2.8-.74h0c0,.11.13.17.44.17a3.62,3.62,0,0,1,.95.11c.81.2,1.19,1,1.36,2.15a12.22,12.22,0,0,1,.13,1.44c.06,1.76.06,3.31.06,11.93v9.71c0,5.31,0,9.67-.17,12,0,.46-.08.94-.13,1.38-.14,1.09-.37,2-.85,2.15a3.17,3.17,0,0,1-1,.11c-.24,0-.27.11-.27.17a.11.11,0,0,0,0,.05c1.2,0,1.74,0,2.46-.69a8.8,8.8,0,0,0,1.39-1.75V206.15a7.73,7.73,0,0,0-1.57-1.7" transform="translate(-22.99 -202.73)"/><path class="cls-33" d="M195.86,244.86a7.13,7.13,0,0,1-1.46-.11c-.72-.15-1-1.06-1.19-2.15-.06-.44-.1-.92-.13-1.38-.17-2.32-.17-6.68-.17-12v-5.85c0-.13,0-.21,0-.24l-.41-1.08L193,221s-.05-.1-.05-.24v-1.21c0-8.62,0-10.17.07-11.93,0-.53.05-1,.1-1.44.13-1.16.42-2,1-2.15a2.62,2.62,0,0,1,.88-.11c.21,0,.38-.06.38-.17v0c-1.2,0-1.74,0-2.46.7a8.28,8.28,0,0,0-1.4,1.75v36.49a6.77,6.77,0,0,0,1.47,1.75c.76.65,1.46.69,3.19.69a.11.11,0,0,0,0-.05c0-.06,0-.17-.3-.17" transform="translate(-22.99 -202.73)"/><path class="cls-2" d="M207.64,221l0,0a.17.17,0,0,1-.1,0H193.08a.16.16,0,0,1-.12,0l-.42,1.09H208l-.37-1.1" transform="translate(-22.99 -202.73)"/><path class="cls-34" d="M207.53,204.45a3.93,3.93,0,0,0-2.8-.74h0c0,.11.13.17.44.17a3.62,3.62,0,0,1,1,.11c.81.2,1.19,1,1.37,2.15q.09.66.12,1.44c.07,1.76.07,3.31.07,11.93v1.21a.41.41,0,0,1,0,.23l.37,1.1-.33,1.32v5.85c0,5.31,0,9.67-.17,12,0,.46-.09.94-.14,1.38-.14,1.09-.37,2-.85,2.15a3.17,3.17,0,0,1-1,.11c-.24,0-.27.11-.27.17a.11.11,0,0,0,0,.05c1.2,0,1.74,0,2.46-.69a8.8,8.8,0,0,0,1.39-1.75V206.15a7.73,7.73,0,0,0-1.57-1.7" transform="translate(-22.99 -202.73)"/><path class="cls-35" d="M207.51,222.06h-15l.41,1.08a.11.11,0,0,1,.09,0h14.47a.12.12,0,0,1,.11,0s.06.11.06.24l.33-1.32h-.5" transform="translate(-22.99 -202.73)"/><path class="cls-1" d="M231.82,246a8.09,8.09,0,0,1-7-3.91,16,16,0,0,1-2.1-5.2,42.08,42.08,0,0,1-.86-9.3v-8.07c0-8.61,0-10.16-.06-11.92s-.28-3.32-1.5-3.62a3.62,3.62,0,0,0-1-.11c-.35,0-.42-.08-.42-.14s.14-.19.53-.19c1.14,0,2.64.09,3.37.14l.45,0,.59,0c.79,0,2.11-.13,2.83-.13.39,0,.53.12.53.19s-.12.14-.36.14a2.64,2.64,0,0,0-.88.11c-.89.3-1.08,1.92-1.14,3.62s-.08,3.31-.08,11.92v7.74c0,8.55,1.3,11.7,2.56,13.66,1.65,2.53,3.19,3,5.13,3s4.07-1.53,5.33-4a18.39,18.39,0,0,0,1.56-5.82,60.74,60.74,0,0,0,.39-7.72v-6.91c0-8.61,0-10.16-.06-11.92s-.27-3.32-1.5-3.62a3.6,3.6,0,0,0-.94-.11c-.35,0-.43-.08-.43-.14s.14-.19.53-.19c1.14,0,2.51.09,3.17.14l.42,0,.54,0c.6,0,1.6-.13,2.3-.13.39,0,.53.12.53.19s-.12.14-.36.14a2.64,2.64,0,0,0-.88.11c-.89.3-1.08,1.92-1.14,3.62s-.08,3.31-.08,11.92v5.91a58.86,58.86,0,0,1-.53,9,17.73,17.73,0,0,1-2.56,7.47,9.67,9.67,0,0,1-3.65,3.37,7.26,7.26,0,0,1-3.32.71" transform="translate(-22.99 -202.73)"/><path class="cls-2" d="M232.06,243.94V245h.07v-1.07h-.07" transform="translate(-22.99 -202.73)"/><path class="cls-1" d="M232.06,245.06V246h.07v-.93h-.07" transform="translate(-22.99 -202.73)"/><path class="cls-2" d="M240.83,205.76a15.79,15.79,0,0,1,1.18-1.37c.64-.68,1.07-.69,2.34-.69,0-.1-.18-.2-.54-.2-1,0-2.64.17-2.84.17s-2.07-.17-3.59-.17c-.39,0-.53.1-.54.2a3.67,3.67,0,0,1,2.42.47,15.66,15.66,0,0,1,1.57,1.59" transform="translate(-22.99 -202.73)"/><path class="cls-2" d="M223.36,206.15a10.87,10.87,0,0,1,1.5-1.77c.69-.66,1.21-.68,2.42-.68,0-.1-.18-.2-.54-.2-1,0-3.25.17-3.42.17s-2.3-.17-3.82-.17c-.39,0-.53.1-.54.2a4,4,0,0,1,2.86.75,7.24,7.24,0,0,1,1.54,1.7" transform="translate(-22.99 -202.73)"/><path class="cls-36" d="M232.1,245v-1.12c-1.75-.07-3.17-.66-4.71-3s-2.54-5.69-2.54-13.64v-7.74c0-8.61,0-10.16.07-11.92.06-1.94.3-3.32,1.11-3.59a2.62,2.62,0,0,1,.88-.11c.21,0,.38-.06.38-.17v0c-1.21,0-1.73,0-2.43.68a10.76,10.76,0,0,0-1.49,1.77v21.43c0,14.4,4.75,17.27,8.74,17.45" transform="translate(-22.99 -202.73)"/><path class="cls-37" d="M232.51,245c.89,0,5.43-.9,7.15-7.26a46.84,46.84,0,0,0,1.17-11.58V205.76a15.66,15.66,0,0,0-1.57-1.59,3.67,3.67,0,0,0-2.42-.47v0c0,.11.13.17.44.17a3.62,3.62,0,0,1,.95.11c1.11.27,1.42,1.71,1.49,3.59s.06,3.31.06,11.93v6.9c0,5.69-.4,10.38-2,13.53-1.22,2.37-3.25,4-5.32,4h-.4V245h.41" transform="translate(-22.99 -202.73)"/><path class="cls-38" d="M223.36,227.58V206.15a7.24,7.24,0,0,0-1.54-1.7,4,4,0,0,0-2.86-.75v0c0,.11.14.17.44.17a3.51,3.51,0,0,1,1,.11c1.12.27,1.43,1.71,1.49,3.59s.07,3.31.07,11.93v8.06c0,8.06,1.29,11.93,2.95,14.52a8.12,8.12,0,0,0,7,3.92h.28v-1c-4-.18-8.74-3.05-8.74-17.45" transform="translate(-22.99 -202.73)"/><path class="cls-39" d="M244.35,203.7c-1.27,0-1.7,0-2.34.69a15.79,15.79,0,0,0-1.18,1.37V226.2a46.84,46.84,0,0,1-1.17,11.58c-1.72,6.36-6.26,7.26-7.15,7.26h-.41v1c2-.05,4.37-.71,6.7-4.08,2.71-3.93,3.12-10.55,3.12-16.52v-5.9c0-8.62,0-10.17.06-11.93.07-1.94.31-3.32,1.12-3.59a2.62,2.62,0,0,1,.88-.11c.21,0,.38-.06.38-.17v0" transform="translate(-22.99 -202.73)"/><path class="cls-1" d="M268,245.33c-2.94,0-5.88-.07-8.73-.14s-5.81-.13-8.78-.13c-.5,0-.59-.16-.59-.42a3.47,3.47,0,0,1,.33-1.2l2.1-5.16c4.54-11.16,8.84-21.71,12.91-32.5H257.9c-1.78,0-4.47,0-5.9,1.21-.71.55-.91,1.84-1.12,3.1v.05c0,.25-.06.46-.08.62s0,.35-.08.35-.08-.21-.08-.69.13-1.72.27-3,.26-2.41.3-3.19v-.1c0-.7,0-.82.18-.82a.24.24,0,0,1,.13,0,4.65,4.65,0,0,0,1.43.24c1.49.13,2.78.19,4.06.19H268.3c.51,0,.63.15.66.25a1.42,1.42,0,0,1-.13.79c-4.88,12.7-10.11,25.61-15.17,38.1a.06.06,0,0,0,0,0s0,0,0,0h9.21c3.74,0,5.09-.47,5.77-2a11.25,11.25,0,0,0,.58-2.67l0-.14a2.45,2.45,0,0,1,.13-.72.07.07,0,0,1,.06,0,3.7,3.7,0,0,1,0,1.2c-.08,1.37-.33,3-.57,4.56-.06.4-.12.77-.18,1.13-.13.88-.16,1-.69,1" transform="translate(-22.99 -202.73)"/><path class="cls-40" d="M251.77,206.16a3.64,3.64,0,0,1,.9-1.16,12.39,12.39,0,0,1-1.25-1.58l-.1-.17c-.09.06-.1.29-.12.91-.1,1.66-.58,5.36-.58,6.24,0,.56,0,.72.1.72h0a11.17,11.17,0,0,1,1-5" transform="translate(-22.99 -202.73)"/><path class="cls-2" d="M268.74,244.37c.27-1.83.64-4,.75-5.69.06-.94,0-1.22-.08-1.26a11.2,11.2,0,0,1-1.74,6.45,11.93,11.93,0,0,0,.86,1.34,2.15,2.15,0,0,0,.21-.84" transform="translate(-22.99 -202.73)"/><path class="cls-2" d="M265.85,204.72c.44,0,.87.7,1,1,.49-.49,1.81-1.48,2.1-1.71v0c0-.11-.17-.27-.68-.27h-9.45a49.22,49.22,0,0,1-5.89-.17,5.22,5.22,0,0,1-1.56-.27.11.11,0,0,0-.08,0l.1.17a12.39,12.39,0,0,0,1.25,1.58c1.23-.31,9.79-.28,13.18-.28" transform="translate(-22.99 -202.73)"/><path class="cls-41" d="M267.67,243.87c-.49.51-9.24.23-14.64.17-.43,0-.83-.8-.94-1.17-.53.52-2,1.82-2.16,1.95,0,.17.2.26.59.26,5.93,0,11.62.28,17.51.28.26,0,.4,0,.5-.15a11.93,11.93,0,0,1-.86-1.34" transform="translate(-22.99 -202.73)"/><path class="cls-42" d="M269.38,237.41c-.06,0-.1.33-.17.88a11.24,11.24,0,0,1-.57,2.65c-.71,1.55-2.2,1.93-5.76,1.93h-9.21L253,244c5.4.06,14.15.34,14.64-.17a11.2,11.2,0,0,0,1.74-6.45h0" transform="translate(-22.99 -202.73)"/><path class="cls-43" d="M268.84,204.77a1.49,1.49,0,0,0,.14-.8c-.29.23-1.61,1.22-2.1,1.71l-14.79,37.19c.11.37.51,1.17.94,1.17l.64-1.17c5.15-12.7,10.3-25.4,15.17-38.1" transform="translate(-22.99 -202.73)"/><path class="cls-44" d="M252.67,205h0a3.69,3.69,0,0,0-.9,1.15,11.25,11.25,0,0,0-1,5c.09,0,.06-.4.16-1,.21-1.27.41-2.6,1.12-3.15,1.42-1.22,4.17-1.22,5.89-1.22h7.35l.6-1c-3.39,0-12,0-13.18.28" transform="translate(-22.99 -202.73)"/><path class="cls-45" d="M266.88,205.68c-.16-.26-.59-1-1-1l-.6,1c-4.71,12.49-9.82,24.91-15,37.67a3.79,3.79,0,0,0-.34,1.21.9.9,0,0,0,0,.18c.15-.13,1.63-1.43,2.16-1.95l14.79-37.19" transform="translate(-22.99 -202.73)"/><text x="-22.99" y="-202.73"/></svg>